HIERARCHY
ROOT ui
{
	 OFFSET 0 0 0
	 CHANNELS 3 XPosition YPosition Z Position
	 EndSite
	 {
	 OFFSET 0 -1 0
	 }
}
ROOT li
{
	 OFFSET 0 0 0
	 CHANNELS 3 XPosition YPosition Z Position
	 EndSite
	 {
	 OFFSET 0 -1 0
	 }
}
ROOT ul
{
	 OFFSET 0 0 0
	 CHANNELS 3 XPosition YPosition Z Position
	 EndSite
	 {
	 OFFSET 0 -1 0
	 }
}
ROOT ll
{
	 OFFSET 0 0 0
	 CHANNELS 3 XPosition YPosition Z Position
	 EndSite
	 {
	 OFFSET 0 -1 0
	 }
}
ROOT tt
{
	 OFFSET 0 0 0
	 CHANNELS 3 XPosition YPosition Z Position
	 EndSite
	 {
	 OFFSET 0 -1 0
	 }
}
ROOT tb
{
	 OFFSET 0 0 0
	 CHANNELS 3 XPosition YPosition Z Position
	 EndSite
	 {
	 OFFSET 0 -1 0
	 }
}
ROOT td
{
	 OFFSET 0 0 0
	 CHANNELS 3 XPosition YPosition Z Position
	 EndSite
	 {
	 OFFSET 0 -1 0
	 }
}
ROOT v
{
	 OFFSET 0 0 0
	 CHANNELS 3 XPosition YPosition Z Position
	 EndSite
	 {
	 OFFSET 0 -1 0
	 }
}
ROOT bn
{
	 OFFSET 0 0 0
	 CHANNELS 3 XPosition YPosition Z Position
	 EndSite
	 {
	 OFFSET 0 -1 0
	 }
}
MOTION
Frames: 21
Frame Time: 0.002
-0.003388216972351074	-4.22199010848999E-4	0		0.521944580078125	-2.343796630859375	0		-0.994224365234375	0.01929306983947754	0		-0.6878408203125	-2.318492431640625	0		1.363670654296875	-0.59562548828125	0		2.970860107421875	-0.0815901107788086	0		4.4616123046875	0.057795623779296874	0		5.5197275390625	0.061286590576171876	0		-0.20558261108398437	5.905380859375	0		
0.02184582710266113	-8.389919996261597E-4	0		0.4942496337890625	-2.341578125	0		-0.9949888916015625	0.019164697647094726	0		-0.7614976196289063	-2.31275390625	0		1.3749285888671876	-0.5948516235351563	0		2.975014404296875	-0.08870309448242188	0		4.4608466796875	0.057768959045410156	0		5.52896142578125	0.061161617279052734	0		-0.22539649963378905	5.9104912109375	0		
-0.004932909965515137	-6.463699936866761E-4	0		0.4955274658203125	-2.339708740234375	0		-0.9857822265625	0.01791781997680664	0		-0.7602084350585937	-2.309903076171875	0		1.374156982421875	-0.5949453125	0		2.980387939453125	-0.07584453582763671	0		4.46820654296875	0.06962619018554687	0		5.512263671875	0.06831806182861327	0		-0.22627706909179687	5.90937353515625	0		
0.02736520767211914	0.005847797870635986	0		0.4787369384765625	-2.342631103515625	0		-0.992505126953125	0.022860654830932615	0		-0.758941650390625	-2.3080517578125	0		1.3764283447265624	-0.5910823974609375	0		2.96643115234375	-0.0907741928100586	0		4.4743525390625	0.06347673416137695	0		5.5314794921875	0.06802658081054687	0		-0.22712417602539062	5.90925439453125	0		
-0.0024392778873443604	0.0030721518993377687	0		0.5141095581054688	-2.332169677734375	0		-0.9932764892578125	0.02273615837097168	0		-0.7247575073242187	-2.313586181640625	0		1.372614501953125	-0.5951543579101563	0		3.008869384765625	-0.07337773895263672	0		4.46258154296875	0.06352083206176758	0		5.53070751953125	0.06794876098632813	0		-0.19386933898925782	5.91473486328125	0		
0.01876152038574219	-0.0013036220073699952	0		0.49125103759765626	-2.342025390625	0		-0.9980739135742187	0.018662826538085937	0		-0.7644972534179687	-2.3132470703125	0		1.3659371337890625	-0.5891964721679688	0		2.96701611328125	-0.082001220703125	0		4.46791259765625	0.07034833526611328	0		5.52587451171875	0.060898677825927734	0		-0.1946290588378906	5.9156171875	0		
-0.007959552764892578	-0.001114184021949768	0		0.544466064453125	-2.34777685546875	0		-0.9987968139648438	0.018546133041381835	0		-0.7652196655273438	-2.31336376953125	0		1.36521435546875	-0.589312744140625	0		2.966293212890625	-0.08211714935302734	0		4.46110791015625	0.06330377578735352	0		5.52923388671875	0.06773568725585938	0		-0.22943307495117188	5.90890087890625	0		
-0.008648929595947265	-0.0012296260595321656	0		0.4669166259765625	-2.334988525390625	0		-0.9894985961914062	0.01731585693359375	0		-0.7638804321289062	-2.310500732421875	0		1.3704522705078126	-0.5955022583007813	0		2.989472412109375	-0.09352267456054687	0		4.46532421875	0.05511745071411133	0		5.533638671875	0.07554524230957031	0		-0.2130010528564453	5.91758544921875	0		
0.032768348693847656	0.004161548137664795	0		0.5481890258789063	-2.341070068359375	0		-0.9861138916015625	0.020159976959228516	0		-0.75949658203125	-2.306669677734375	0		1.372845458984375	-0.5916591186523438	0		2.97306982421875	-0.07246576690673828	0		4.4638388671875	0.06899026489257812	0		5.53707080078125	0.08235390472412109	0		-0.19566793823242187	5.91326123046875	0		
-0.0058596148490905765	0.002497247934341431	0		0.51956640625	-2.340856201171875	0		-0.9966965942382813	0.022173093795776366	0		-0.691231689453125	-2.31658837890625	0		1.36918701171875	-0.5957456665039063	0		2.953263427734375	-0.08937482452392578	0		4.4701611328125	0.0627629737854004	0		5.5272880859375	0.06730775451660156	0		-0.1972190399169922	5.914162109375	0		
0.015530219078063965	-0.001871780037879944	0		0.5319946899414062	-2.340124267578125	0		-1.0013047485351563	0.018119585037231444	0		-0.777690185546875	-2.3056787109375	0		1.3686202392578124	-0.5958679809570312	0		2.96378271484375	-0.08264161682128907	0		4.45860107421875	0.06274239349365235	0		5.52264501953125	0.06019557952880859	0		-0.21185589599609375	5.9032197265625	0		
-0.010983895301818848	-0.0016733959913253784	0		0.48742282104492185	-2.342718505859375	0		-1.0018204956054688	0.018021398544311524	0		-0.6974120483398437	-2.321734130859375	0		1.3650631103515625	-0.5989545288085938	0		2.96818310546875	-0.08983837127685547	0		4.45401513671875	0.05663668441772461	0		5.51213037109375	0.06014951324462891	0		-0.2322517852783203	5.908349609375	0		
0.014542821884155274	-0.002087290048599243	0		0.4958313903808594	-2.350936279296875	0		-0.9923042602539063	0.016807079315185547	0		-0.7558804321289062	-2.319148681640625	0		1.3676204833984376	-0.5961115112304688	0		2.957876708984375	-0.07585960388183594	0		4.45761474609375	0.06243488311767578	0		5.51574169921875	0.06693641662597656	0		-0.23167245483398438	5.9072333984375	0		
-7.549800276756286E-4	0.008983624458312989	0		0.4925557861328125	-2.336012451171875	0		-0.98869775390625	0.019664323806762696	0		-0.7282525024414063	-2.312577880859375	0		1.3702325439453125	-0.5922669067382812	0		2.9602578125	-0.09203001403808594	0		4.4571865234375	0.06228332901000976	0		5.51531396484375	0.06677393341064453	0		-0.23204029846191407	5.90713037109375	0		
0.013724634170532227	-0.0022974050045013426	0		0.515060791015625	-2.343392822265625	0		-0.9990625	0.021687179565429687	0		-0.7676482543945312	-2.311214111328125	0		1.366790771484375	-0.5963479614257813	0		3.00307763671875	-0.07467134094238281	0		4.4567978515625	0.062138378143310545	0		5.520841796875	0.05954884338378906	0		-0.06505614471435547	5.93305029296875	0		
-0.012627524375915527	-0.0020935759544372557	0		0.5126665649414063	-2.3454765625	0		-1.00346337890625	0.01763806915283203	0		-0.697118408203125	-2.320152587890625	0		1.3664324951171876	-0.5964616088867187	0		2.961619384765625	-0.0833106460571289	0		4.4564443359375	0.06200266647338867	0		5.50048974609375	0.05964230346679687	0		-0.2137362060546875	5.902701171875	0		
-0.012950970649719238	-0.002197817087173462	0		0.47645263671875	-2.33515771484375	0		-0.9988463134765625	0.012479787826538085	0		-0.78231689453125	-2.30824755859375	0		1.366106201171875	-0.5965725708007813	0		2.961295654296875	-0.08342937469482421	0		4.46712060546875	0.06174637603759765	0		5.5201650390625	0.05927433776855469	0		-0.232982177734375	5.90682275390625	0		
-0.013247300148010253	-0.0023030080795288085	0		0.4959831237792969	-2.349500244140625	0		-0.9940955200195313	0.016317602157592773	0		-0.760774658203125	-2.3216103515625	0		1.365808349609375	-0.5966812744140625	0		2.984866943359375	-0.09482569885253907	0		4.4528017578125	0.05979573440551758	0		5.51314208984375	0.082236328125	0		-0.23128724670410156	5.9046943359375	0		
0.02855037307739258	0.0030928549766540527	0		0.5017949829101562	-2.342677978515625	0		-0.9903307495117187	0.01916390609741211	0		-0.7638792724609375	-2.307681884765625	0		1.3685850830078126	-0.5928233642578125	0		2.9799287109375	-0.06687482452392578	0		4.470625	0.0674754409790039	0		5.52368115234375	0.0660005645751953	0		-0.233533447265625	5.90661181640625	0		
-0.006680595874786377	0.004400358200073242	0		0.5326370849609375	-2.336151123046875	0		-1.0005516357421875	0.02117237663269043	0		-0.6952294311523437	-2.317607666015625	0		1.3652943115234375	-0.5968906860351563	0		2.932402587890625	-0.09041511535644531	0		4.45530908203125	0.06155910110473633	0		5.5134365234375	0.0660275650024414	0		-0.21385598754882812	5.901267578125	0		
-0.009032515525817872	-0.006683309078216553	0		0.4843385009765625	-2.343687255859375	0		-1.0007736206054687	0.02105805587768555	0		-0.7344340209960938	-2.317258544921875	0		1.365076171875	-0.596990234375	0		2.96026220703125	-0.08383679962158203	0		4.485001953125	0.05412424087524414	0		5.519130859375	0.058883403778076174	0		-0.06771060943603516	5.934427734375	0		
